<?xml version="1.0" encoding="UTF-8"?>
<!-- Generated by Pixelmator Pro 2.4.3 -->
<svg width="38" height="38" viewBox="0 0 38 38" xmlns="http://www.w3.org/2000/svg" xmlns:xlink="http://www.w3.org/1999/xlink">
    <path id="Path" fill="#000000" stroke="none" d="M 14.866994 7.576656 C 14.281207 8.162443 14.281208 9.112192 14.866994 9.697977 L 21.584509 16.415491 C 21.975033 16.806015 21.975033 17.43918 21.584509 17.829706 C 21.193985 18.22023 20.560818 18.22023 20.170294 17.829706 L 10.82351 8.791714 L 9.409297 8.791714 C 8.944022 9.223049 9.184684 8.889046 8.981036 9.191689 C 8.829716 9.419378 8.701023 9.743233 8.604856 10.082644 C 8.55536 10.250937 8.600614 10.502665 8.836787 10.738838 L 18.048975 19.951025 C 18.439499 20.341549 18.439499 20.974716 18.048975 21.36524 C 17.658451 21.755762 17.025286 21.755762 16.634762 21.365238 L 9.471769 14.202246 C 9.416596 14.246906 9.361912 14.292164 9.307721 14.338011 C 8.826888 14.750961 8.467679 15.149769 8.363027 15.395844 C 8.261202 15.627773 8.231503 16.11285 8.283831 16.691263 C 8.305044 16.941578 8.340399 17.172094 8.367268 17.340385 L 15.220548 24.193665 C 15.611072 24.58419 15.611072 25.217356 15.220548 25.60788 C 14.830024 25.998404 14.196858 25.998404 13.806334 25.60788 L 8.856586 20.658133 L 8.372926 21.141792 C 7.973239 21.54147 7.761335 22.09161 7.789628 22.656137 C 7.817923 23.220665 8.083772 23.746861 8.521419 24.10457 L 16.279793 31.096441 C 16.82272 31.540382 17.452963 31.865143 18.129585 32.049622 L 23.555923 33.530304 C 23.902063 33.624763 24.272282 33.526543 24.526073 33.272919 L 33.555828 24.243164 C 33.79221 24.006536 33.894642 23.667398 33.82877 23.339481 L 32.814777 18.272354 C 32.720955 17.802204 32.515823 17.361385 32.216568 16.986835 L 28.313335 12.107798 C 27.989372 11.702074 27.408802 11.611763 26.976906 11.899908 L 25.275606 13.035521 L 26.534256 14.29417 C 26.92478 14.684694 26.92478 15.31786 26.534256 15.708385 C 26.143732 16.098909 25.510567 16.098909 25.120043 15.708385 L 16.988314 7.576656 C 16.402529 6.990871 15.452781 6.99087 14.866994 7.576656 Z M 11.530617 6.670393 L 13.651937 8.791714 C 12.285102 7.424879 12.085945 7.529278 13.45278 6.162443 C 14.819615 4.795609 17.035692 4.795609 18.402529 6.162443 L 23.833109 11.593023 L 25.869576 10.235378 C 27.164059 9.373272 28.902739 9.643404 29.874628 10.857632 L 33.77927 15.738083 C 34.278034 16.362337 34.619923 17.097033 34.776291 17.880617 L 35.790283 22.947742 C 35.987034 23.931282 35.679234 24.94808 34.970039 25.657377 L 25.940287 34.68713 C 25.178913 35.448013 24.068258 35.742676 23.029835 35.459293 L 17.604914 33.980022 C 16.65658 33.721489 15.773329 33.266129 15.012658 32.643593 L 7.254284 25.65172 C 6.379647 24.936104 5.848528 23.883907 5.792214 22.755222 C 5.735903 21.626539 6.15965 20.526701 6.958712 19.727579 L 6.366157 17.491707 C 6.334736 17.283695 6.309739 17.074764 6.291203 16.865211 C 6.237463 16.27124 6.209179 15.340689 6.523134 14.608126 C 6.831433 13.886875 7.532882 13.225025 8.008059 12.817732 L 6.797493 11.233812 C 6.562644 10.697834 6.521644 10.096834 6.681526 9.53393 C 6.819237 9.020929 7.033799 8.531729 7.317923 8.082945 C 7.668646 7.556858 8.281 6.955816 8.737793 6.532969 L 11.530617 6.670393 Z"/>
    <path id="path1" fill="#ffffff" fill-rule="evenodd" stroke="#d5d5d5" stroke-width="2" stroke-opacity="0.557038" stroke-linecap="round" stroke-linejoin="round" d="M 26 4 C 26 4 30.471239 2.923252 32 3"/>
    <path id="path2" fill="none" stroke="#000000" stroke-width="2" stroke-linecap="round" stroke-linejoin="round" d="M 26 2 C 26 2 28.282694 2.023117 30 3 C 31.717306 3.976883 32 6 32 6"/>
    <path id="Path-copy" fill="none" stroke="#000000" stroke-width="2" stroke-linecap="round" stroke-linejoin="round" d="M 25.5 6 C 25.5 6 26.641346 6.011559 27.5 6.5 C 28.358654 6.988441 28.5 8 28.5 8"/>
    <path id="Path-copy-3" fill="none" stroke="#000000" stroke-width="2" stroke-linecap="round" stroke-linejoin="round" d="M 6.204372 35.853199 C 6.204372 35.853199 4.048547 35.102436 2.733049 33.628357 C 1.41755 32.154282 1.795628 30.146801 1.795628 30.146801"/>
    <path id="Path-copy-2" fill="none" stroke="#000000" stroke-width="2" stroke-linecap="round" stroke-linejoin="round" d="M 8.057625 31.459942 C 8.057625 31.459942 6.991813 31.051466 6.357128 30.294476 C 5.722443 29.537485 5.942375 28.540058 5.942375 28.540058"/>
</svg>
